<svg fill="none" fill-rule="evenodd" height="100%" viewBox="0 0 32 32" width="100%" fit="" preserveAspectRatio="xMidYMid meet" focusable="false" xmlns="http://www.w3.org/2000/svg"><path d="M1 9h4v3H1zm0 5h4v3H1zm0 5h4v3H1z" fill="#5C85DE"></path><path d="M26 9h4v3h-4zm0 5h4v3h-4zm0 5h4v3h-4z" fill="#3367D6"></path><path d="M19 1h3v4h-3zm-5 0h3v4h-3zM9 1h3v4H9z" fill="#5C85DE"></path><path d="M19 26h3v4h-3zm-5 0h3v4h-3zm-5 0h3v4H9z" fill="#3367D6"></path><path d="M5 5v21h21V5H5zm18 18H8V8h15v15z" fill="#85A4E6"></path><path d="M11 11h9v9h-9z" fill="#85A4E6"></path><path d="M20 20h-4.5v-4.5L20 11z" fill="#3367D6"></path><path d="M20 20h-9l4.5-4.5z" fill="#5C85DE"></path></svg>