<?xml version="1.0" encoding="UTF-8" standalone="no"?>
<!-- Created with Inkscape (http://www.inkscape.org/) -->

<svg
   width="21.43125mm"
   height="25.664583mm"
   viewBox="0 0 21.43125 25.664583"
   version="1.1"
   id="svg1"
   xmlns="http://www.w3.org/2000/svg"
   xmlns:svg="http://www.w3.org/2000/svg">
  <defs
     id="defs1" />
  <g
     id="layer1">
    <g
       transform="matrix(0.26458333,0,0,0.26458333,-105.83333,-107.42083)"
       id="g5">
      <path
         d="m 440.5,456 c 3.584,0 6.5,3.14 6.5,7.001 0,3.859 -2.916,6.999 -6.5,6.999 -3.583,0 -6.5,-3.14 -6.5,-6.999 0,-3.861 2.917,-7.001 6.5,-7.001 z"
         fill="#00b3e3"
         fill-rule="evenodd"
         id="path1" />
      <path
         d="m 440.5,406 c 15.798,0 30.125,6.245 40.5,16.329 L 474.135,429 c -8.616,-8.375 -20.514,-13.561 -33.635,-13.561 -13.121,0 -25.019,5.186 -33.635,13.561 L 400,422.329 C 410.376,412.245 424.702,406 440.5,406 Z"
         fill="#00b3e3"
         fill-rule="evenodd"
         id="path2" />
      <path
         d="m 440.5,423 c 11.117,0 21.199,4.577 28.5,11.965 L 462.05,442 c -5.522,-5.586 -13.144,-9.047 -21.55,-9.047 -8.406,0 -16.028,3.461 -21.548,9.047 L 412,434.965 C 419.302,427.577 429.383,423 440.5,423 Z"
         fill="#00b3e3"
         fill-rule="evenodd"
         id="path3" />
      <path
         d="m 440.499,441 c 6.047,0 11.53,2.428 15.501,6.348 L 449.261,454 c -2.245,-2.215 -5.344,-3.588 -8.762,-3.588 -3.417,0 -6.515,1.373 -8.76,3.588 L 425,447.348 c 3.971,-3.92 9.454,-6.348 15.499,-6.348 z"
         fill="#00b3e3"
         fill-rule="evenodd"
         id="path4" />
      <path
         d="m 409.506,438 6.868,6.981 c -3.605,5.017 -5.741,11.191 -5.741,17.866 0,16.74 13.399,30.359 29.867,30.359 16.468,0 29.866,-13.619 29.866,-30.359 0,-6.675 -2.135,-12.849 -5.74,-17.866 L 471.494,438 C 476.813,444.841 480,453.47 480,462.847 480,484.988 462.28,503 440.5,503 418.72,503 401,484.988 401,462.847 c 0,-9.377 3.187,-18.006 8.506,-24.847 z"
         fill="#042a48"
         fill-rule="evenodd"
         id="path5" />
    </g>
  </g>
</svg>
