<?xml version="1.0" encoding="UTF-8" standalone="no"?>
<svg
   clip-rule="evenodd"
   fill-rule="evenodd"
   height="414.10739"
   stroke-linejoin="round"
   stroke-miterlimit="2"
   viewBox="0 0 414.10681 414.10741"
   width="414.10681"
   version="1.1"
   id="svg102"
   sodipodi:docname="hedgedoc_banner_color_horizontal.svg"
   xmlns:inkscape="http://www.inkscape.org/namespaces/inkscape"
   xmlns:sodipodi="http://sodipodi.sourceforge.net/DTD/sodipodi-0.dtd"
   xmlns="http://www.w3.org/2000/svg"
   xmlns:svg="http://www.w3.org/2000/svg">
  <defs
     id="defs106" />
  <sodipodi:namedview
     id="namedview104"
     pagecolor="#505050"
     bordercolor="#eeeeee"
     borderopacity="1"
     inkscape:showpageshadow="0"
     inkscape:pageopacity="0"
     inkscape:pagecheckerboard="0"
     inkscape:deskcolor="#505050"
     showgrid="false" />
  <linearGradient
     id="a"
     gradientTransform="matrix(200,-420,420,200,660,1340)"
     gradientUnits="userSpaceOnUse"
     x2="1">
    <stop
       offset="0"
       stop-color="#fdd49a"
       id="stop55" />
    <stop
       offset="1"
       stop-color="#dca055"
       id="stop57" />
  </linearGradient>
  <g
     fill-rule="nonzero"
     transform="translate(-50.012187,-265.88958)"
     id="g84">
    <path
       d="M 0,50.919 V 0 H 5.941 V 23.084 H 34.964 V 0 h 5.94 v 50.919 h -5.94 V 28.515 H 5.941 v 22.404 z"
       transform="matrix(3.285,0,0,3.285,570.76,387.65)"
       id="path60" />
    <path
       d="m 0,-0.068 v 2.274 h -28.786 c 0.566,3.01 2.02,5.482 4.362,7.418 2.342,1.934 5.165,2.902 8.469,2.902 1.834,0 3.768,-0.357 5.806,-1.069 2.036,-0.713 3.891,-1.862 5.566,-3.446 l 3.293,4.209 c -2.467,2.06 -4.928,3.474 -7.383,4.243 -2.456,0.77 -4.826,1.155 -7.112,1.155 0,0 -6.925,-0.764 -9.776,-2.291 -2.852,-1.528 -5.087,-3.638 -6.704,-6.331 -1.619,-2.693 -2.428,-5.759 -2.428,-9.199 0,-3.35 0.759,-6.343 2.275,-8.979 1.516,-2.636 3.598,-4.713 6.246,-6.23 2.648,-1.515 5.646,-2.274 8.995,-2.274 3.35,0 6.314,0.759 8.894,2.274 2.58,1.517 4.605,3.599 6.076,6.247 C -0.736,-6.518 0,-3.485 0,-0.068 m -28.854,-2.478 h 23.015 c -0.498,-2.965 -1.777,-5.38 -3.836,-7.247 -2.059,-1.868 -4.571,-2.801 -7.535,-2.801 -3.01,0 -5.579,0.945 -7.706,2.834 -2.127,1.89 -3.44,4.295 -3.938,7.214"
       transform="matrix(3.285,0,0,3.285,846.97,499.27)"
       id="path62" />
    <path
       d="m 0,-19.01 c 2.489,0 4.797,0.453 6.925,1.358 2.127,0.906 3.949,2.161 5.465,3.767 v -21.419 h 5.601 V 15.615 H 12.934 L 12.628,10.896 C 11.111,12.571 9.267,13.889 7.095,14.851 4.922,15.813 2.557,16.294 0,16.294 c -3.281,0 -6.218,-0.764 -8.809,-2.292 -2.591,-1.528 -4.629,-3.621 -6.11,-6.28 -1.483,-2.658 -2.224,-5.685 -2.224,-9.081 0,-3.394 0.741,-6.42 2.224,-9.08 1.481,-2.659 3.519,-4.752 6.11,-6.28 2.591,-1.528 5.528,-2.291 8.809,-2.291 m -11.372,17.651 c 0,2.399 0.515,4.549 1.545,6.45 1.029,1.901 2.438,3.395 4.226,4.481 1.787,1.087 3.824,1.63 6.11,1.63 2.286,0 4.323,-0.543 6.11,-1.63 1.788,-1.086 3.197,-2.58 4.227,-4.481 1.029,-1.901 1.544,-4.051 1.544,-6.45 0,-2.42 -0.515,-4.576 -1.544,-6.466 -1.03,-1.889 -2.439,-3.377 -4.227,-4.464 -1.787,-1.086 -3.824,-1.629 -6.11,-1.629 -2.286,0 -4.323,0.543 -6.11,1.629 -1.788,1.087 -3.197,2.575 -4.226,4.464 -1.03,1.89 -1.545,4.046 -1.545,6.466"
       transform="matrix(3.285,0,0,3.285,923.35,503.62)"
       id="path64" />
    <path
       d="m 0,18.332 c -3.281,0 -6.218,-0.763 -8.809,-2.291 -2.591,-1.528 -4.629,-3.621 -6.11,-6.28 -1.483,-2.659 -2.224,-5.686 -2.224,-9.081 0,-3.395 0.741,-6.421 2.224,-9.08 1.481,-2.659 3.519,-4.752 6.11,-6.28 2.591,-1.528 5.528,-2.292 8.809,-2.292 2.557,0 4.922,0.481 7.094,1.443 2.173,0.962 4.017,2.28 5.533,3.955 l 0.306,-4.719 h 5.058 v 30.619 c 0,4.187 -0.758,7.853 -2.274,10.999 -1.517,3.145 -3.751,5.595 -6.704,7.349 -2.954,1.753 -6.592,2.63 -10.914,2.63 -2.377,0 -4.606,-0.344 -6.688,-1.035 -2.082,-0.691 -3.96,-1.657 -5.634,-2.902 l 2.783,-4.684 c 1.267,1.108 2.716,1.973 4.346,2.596 1.629,0.622 3.394,0.933 5.295,0.933 4.82,0 8.389,-1.386 10.71,-4.157 2.319,-2.773 3.479,-6.467 3.479,-11.084 V 13.207 C 10.874,14.814 9.052,16.069 6.925,16.974 4.797,17.879 2.489,18.332 0,18.332 M -11.372,0.68 c 0,2.399 0.514,4.549 1.545,6.45 1.029,1.901 2.438,3.394 4.226,4.481 1.787,1.086 3.824,1.629 6.11,1.629 2.285,0 4.323,-0.543 6.11,-1.629 1.788,-1.087 3.197,-2.58 4.226,-4.481 1.03,-1.901 1.545,-4.051 1.545,-6.45 0,-2.421 -0.515,-4.577 -1.545,-6.467 -1.029,-1.888 -2.438,-3.377 -4.226,-4.463 -1.787,-1.087 -3.825,-1.63 -6.11,-1.63 -2.286,0 -4.323,0.543 -6.11,1.63 -1.788,1.086 -3.197,2.575 -4.226,4.463 -1.031,1.89 -1.545,4.046 -1.545,6.467"
       transform="matrix(3.285,0,0,3.285,1066.6,496.92)"
       id="path66" />
    <path
       d="m 0,-0.068 v 2.274 h -28.786 c 0.566,3.01 2.02,5.482 4.362,7.418 2.342,1.934 5.165,2.902 8.469,2.902 1.834,0 3.769,-0.357 5.806,-1.069 2.036,-0.713 3.891,-1.862 5.566,-3.446 l 3.293,4.209 c -2.467,2.06 -4.928,3.474 -7.383,4.243 -2.456,0.77 -4.826,1.155 -7.112,1.155 -3.666,0 -6.925,-0.764 -9.776,-2.291 -2.851,-1.528 -5.087,-3.638 -6.704,-6.331 -1.619,-2.693 -2.428,-5.759 -2.428,-9.199 0,-3.35 0.759,-6.343 2.275,-8.979 1.516,-2.636 3.598,-4.713 6.246,-6.23 2.648,-1.515 5.646,-2.274 8.995,-2.274 3.35,0 6.314,0.759 8.894,2.274 2.58,1.517 4.605,3.599 6.076,6.247 C -0.736,-6.518 0,-3.485 0,-0.068 m -28.854,-2.478 h 23.015 c -0.498,-2.965 -1.777,-5.38 -3.836,-7.247 -2.059,-1.868 -4.571,-2.801 -7.535,-2.801 -3.01,0 -5.579,0.945 -7.706,2.834 -2.127,1.89 -3.44,4.295 -3.938,7.214"
       transform="matrix(3.285,0,0,3.285,1267.6,499.27)"
       id="path68" />
    <path
       d="M 0,50.919 H -13.85 V 0 H 0 c 10.003,0 17.686,2.213 23.049,6.637 5.363,4.424 8.045,10.676 8.045,18.755 0,8.101 -2.682,14.382 -8.045,18.839 C 17.686,48.69 10.003,50.919 0,50.919 m 0,-5.431 c 8.056,0 14.235,-1.754 18.535,-5.262 4.299,-3.507 6.449,-8.453 6.449,-14.834 0,-6.359 -2.15,-11.275 -6.449,-14.75 C 14.235,7.169 8.056,5.432 0,5.432 h -7.909 v 40.056 z"
       transform="matrix(3.285,0,0,3.285,1341,387.87)"
       id="path70" />
    <path
       d="m 0,-0.001 c 0,-3.394 0.764,-6.421 2.291,-9.08 1.528,-2.659 3.621,-4.752 6.281,-6.28 2.659,-1.528 5.685,-2.291 9.08,-2.291 3.394,0 6.421,0.763 9.08,2.291 2.659,1.528 4.752,3.621 6.28,6.28 1.528,2.659 2.291,5.686 2.291,9.08 0,3.395 -0.763,6.422 -2.291,9.081 -1.528,2.659 -3.621,4.752 -6.28,6.28 -2.659,1.528 -5.686,2.291 -9.08,2.291 -3.395,0 -6.421,-0.763 -9.08,-2.291 C 5.912,13.832 3.819,11.739 2.291,9.08 0.764,6.421 0,3.394 0,-0.001 m 5.771,0 c 0,2.399 0.514,4.549 1.545,6.45 1.029,1.901 2.438,3.394 4.226,4.481 1.787,1.086 3.824,1.629 6.11,1.629 2.285,0 4.323,-0.543 6.11,-1.629 1.788,-1.087 3.197,-2.58 4.227,-4.481 1.029,-1.901 1.544,-4.051 1.544,-6.45 0,-2.421 -0.515,-4.577 -1.544,-6.466 -1.03,-1.889 -2.439,-3.377 -4.227,-4.464 -1.787,-1.087 -3.825,-1.629 -6.11,-1.629 -2.286,0 -4.323,0.542 -6.11,1.629 -1.788,1.087 -3.197,2.575 -4.226,4.464 -1.031,1.889 -1.545,4.045 -1.545,6.466"
       transform="matrix(3.285,0,0,3.285,1464.4,499.16)"
       id="path72" />
    <path
       d="m 0,25.256 c -1.584,1.584 -3.451,2.817 -5.601,3.7 -2.15,0.883 -4.503,1.324 -7.06,1.324 -3.395,0 -6.422,-0.764 -9.081,-2.292 -2.659,-1.527 -4.752,-3.62 -6.28,-6.28 -1.527,-2.658 -2.291,-5.685 -2.291,-9.08 0,-3.395 0.764,-6.421 2.291,-9.08 1.528,-2.66 3.621,-4.753 6.28,-6.28 2.659,-1.528 5.686,-2.292 9.081,-2.292 2.557,0 4.91,0.441 7.06,1.324 2.15,0.883 4.017,2.105 5.601,3.666 L -3.904,3.87 C -4.968,2.67 -6.246,1.737 -7.739,1.069 -9.233,0.402 -10.874,0.068 -12.661,0.068 c -2.286,0 -4.323,0.543 -6.111,1.63 -1.788,1.086 -3.197,2.574 -4.226,4.463 -1.03,1.89 -1.544,4.046 -1.544,6.467 0,2.399 0.514,4.549 1.544,6.45 1.029,1.9 2.438,3.394 4.226,4.48 1.788,1.087 3.825,1.63 6.111,1.63 1.787,0 3.428,-0.34 4.922,-1.019 1.493,-0.679 2.771,-1.606 3.835,-2.783 z"
       transform="matrix(3.285,0,0,3.285,1700,457.68)"
       id="path74" />
    <g
       transform="matrix(0.27874,0,0,0.27874,10.207,226.1)"
       id="g82">
      <path
         d="m 1553.7,961.08 75.25,-75.258 -75.25,-75.246 56.61,-90.096 -90.1,-56.616 35.15,-100.45 -100.44,-35.142 11.91,-105.75 -105.74,-11.912 -11.92,-105.75 -105.74,11.912 -35.15,-100.44 -100.43,35.145 -56.63,-90.1 -90.107,56.617 -75.242,-75.246 -75.242,75.25 -90.104,-56.612 -56.612,90.096 -100.44,-35.15 -35.142,100.44 -105.75,-11.916 -11.912,105.74 -105.74,11.913 11.917,105.74 -100.45,35.15 35.145,100.44 -90.1,56.612 56.621,90.117 -75.258,75.25 75.25,75.258 -56.613,90.107 90.1,56.61 -35.145,100.44 100.45,35.15 -11.913,105.73 105.74,11.92 11.912,105.74 105.75,-11.91 35.142,100.43 100.44,-35.13 56.617,90.1 90.096,-56.62 75.25,74.55 75.25,-74.53 90.099,56.61 56.61,-90.11 100.45,35.15 35.14,-100.44 105.75,11.91 11.91,-105.75 105.75,-11.91 -11.92,-105.74 100.45,-35.15 -35.15,-100.45 90.1,-56.61 z"
         fill="#b51f08"
         id="path76" />
      <path
         d="m 1401.3,1004.8 c 0,-145.44 -117.9,-263.34 -263.34,-263.34 -72.24,0 -137.68,29.112 -185.25,76.225 l -0.033,-0.034 -67.096,67.1 -54.862,-54.862 c -48.267,-55.067 -119.07,-89.879 -198.04,-89.879 -145.44,0 -263.34,117.9 -263.34,263.34 0,76 32.23,144.43 83.721,192.49 l 432.78,432.55 423.22,-423.49 c 52.88,-49.77 92.25,-120 92.25,-200.1"
         fill="#fdd49a"
         id="path78" />
      <path
         d="m 885.58,884.73 -54.862,-54.862 c -48.267,-55.067 -119.07,-89.879 -198.04,-89.879 -145.44,0 -263.34,117.9 -263.34,263.34 0,76 32.23,144.43 83.721,192.49 l 432.78,432.55"
         fill="url(#a)"
         id="path80"
         style="fill:url(#a)" />
    </g>
  </g>
  <g
     stroke-width="0.27874"
     id="g100"
     transform="translate(-0.01318696,4.2248001e-4)">
    <path
       d="M 207.13,414.11 207.0592,206.82"
       fill="none"
       id="path86" />
    <g
       fill-rule="nonzero"
       id="g98">
      <path
         d="m 228.08,393.26 c -5.3739,-5.3937 -12.799,-8.7275 -20.996,-8.7275 -8.1998,0 -15.622,3.3338 -20.998,8.7275 0.0859,11.523 9.4517,20.839 20.996,20.839 11.544,0 20.911,-9.3184 20.998,-20.839"
         fill="#010007"
         id="path88" />
      <path
         d="m 182.56,266.33 c 0,8.8641 -7.1824,16.047 -16.048,16.047 -8.8604,0 -16.044,-7.1832 -16.044,-16.047 0,-8.8641 7.1835,-16.047 16.044,-16.047 8.8652,0 16.048,7.1832 16.048,16.047"
         fill="#010007"
         id="path90" />
      <path
         d="m 177.06,263.93 c 0,2.4585 -1.9919,4.4432 -4.446,4.4432 -2.4552,0 -4.4482,-1.9847 -4.4482,-4.4432 0,-2.4557 1.993,-4.4488 4.4482,-4.4488 2.4541,0 4.446,1.993 4.446,4.4488"
         fill="#fffffa"
         id="path92" />
      <path
         d="m 263.94,266.33 c 0,8.8641 -7.1832,16.047 -16.047,16.047 -8.8613,0 -16.046,-7.1832 -16.046,-16.047 0,-8.8641 7.1852,-16.047 16.046,-16.047 8.8641,0 16.047,7.1832 16.047,16.047"
         fill="#010007"
         id="path94" />
      <path
         d="m 258.44,263.93 c 0,2.4585 -1.993,4.4432 -4.446,4.4432 -2.4557,0 -4.4488,-1.9847 -4.4488,-4.4432 0,-2.4557 1.993,-4.4488 4.4488,-4.4488 2.453,0 4.446,1.993 4.446,4.4488"
         fill="#fffffa"
         id="path96" />
    </g>
  </g>
</svg>
